<svg width="156" height="173" viewBox="0 0 156 173" fill="none" xmlns="http://www.w3.org/2000/svg">
<g opacity="0.9">
<path fill-rule="evenodd" clip-rule="evenodd" d="M155.925 120.018C155.925 126.852 152.267 133.164 146.336 136.561L87.1248 170.478C81.2298 173.855 73.9834 173.84 68.1027 170.438L9.51916 136.551C3.62795 133.144 0 126.854 0 120.048L0 52.9515C0 46.1457 3.62795 39.8561 9.51916 36.4484L68.1027 2.56184C73.9834 -0.839722 81.2298 -0.855011 87.1248 2.52173L146.336 36.4389C152.267 39.836 155.925 46.1477 155.925 52.9822L155.925 120.018ZM72.1937 163.365C75.5541 165.309 79.6949 165.318 83.0635 163.388L142.275 129.471C145.664 127.53 147.754 123.923 147.754 120.018L147.754 52.9823C147.754 49.0768 145.664 45.4702 142.275 43.529L83.0635 9.61179C79.6949 7.68224 75.5541 7.69096 72.1937 9.63472L13.6102 43.5213C10.2437 45.4685 8.17063 49.0626 8.17063 52.9516L8.17063 120.048C8.17063 123.937 10.2437 127.532 13.6102 129.479L72.1937 163.365Z" fill="white"/>
<path d="M102.815 49.0506L119.156 49.0506C121.413 49.0506 123.242 50.8797 123.242 53.136C123.242 55.3923 121.413 57.2213 119.156 57.2213L102.815 57.2213C100.559 57.2213 98.7295 55.3923 98.7295 53.136C98.7295 50.8797 100.559 49.0506 102.815 49.0506Z" fill="#7630EA"/>
<path d="M45.6205 49.0506L86.4743 49.0506C88.7306 49.0506 90.5596 50.8797 90.5596 53.136C90.5596 55.3923 88.7306 57.2214 86.4743 57.2214L45.6205 57.2214C43.3642 57.2214 41.5352 55.3923 41.5352 53.136C41.5352 50.8797 43.3642 49.0506 45.6205 49.0506Z" fill="#FF8300"/>
<path d="M61.9613 99.4369L102.815 99.4369C105.071 99.4369 106.9 101.266 106.9 103.522C106.9 105.779 105.071 107.608 102.815 107.608L61.9613 107.608C59.7051 107.608 57.876 105.779 57.876 103.522C57.876 101.266 59.7051 99.4369 61.9613 99.4369Z" fill="#FF8300"/>
<path d="M29.2787 99.4369H45.6202C47.8765 99.4369 49.7056 101.266 49.7056 103.522C49.7056 105.779 47.8765 107.608 45.6202 107.608L29.2787 107.608C27.0224 107.608 25.1934 105.779 25.1934 103.522C25.1934 101.266 27.0224 99.4369 29.2787 99.4369Z" fill="#33DAC8"/>
<path d="M66.0473 32.3685L90.5595 32.3685C92.8158 32.3685 94.6449 34.1976 94.6449 36.4539C94.6449 38.7102 92.8158 40.5392 90.5595 40.5392L66.0473 40.5392C63.791 40.5392 61.9619 38.7102 61.9619 36.4539C61.9619 34.1976 63.791 32.3685 66.0473 32.3685Z" fill="white"/>
<path d="M66.0473 132.801H89.8786C92.1349 132.801 93.964 134.63 93.964 136.886C93.964 139.142 92.1349 140.971 89.8786 140.971H66.0473C63.791 140.971 61.9619 139.142 61.9619 136.886C61.9619 134.63 63.791 132.801 66.0473 132.801Z" fill="white"/>
<path d="M29.2787 65.7323L53.791 65.7323C56.0473 65.7323 57.8763 67.5614 57.8763 69.8177C57.8763 72.074 56.0473 73.9031 53.791 73.9031L29.2787 73.9031C27.0224 73.9031 25.1934 72.074 25.1934 69.8177C25.1934 67.5614 27.0224 65.7323 29.2787 65.7323Z" fill="#7630EA"/>
<path d="M70.1322 65.7323L119.157 65.7323C121.413 65.7323 123.242 67.5614 123.242 69.8177C123.242 72.074 121.413 73.9031 119.157 73.9031L70.1322 73.9031C67.876 73.9031 66.0469 72.074 66.0469 69.8177C66.0469 67.5614 67.876 65.7323 70.1322 65.7323Z" fill="#33DAC8"/>
<path d="M45.6205 116.119L119.157 116.119C121.414 116.119 123.243 117.948 123.243 120.204C123.243 122.461 121.414 124.29 119.157 124.29L45.6205 124.29C43.3642 124.29 41.5352 122.461 41.5352 120.204C41.5352 117.948 43.3642 116.119 45.6205 116.119Z" fill="#7630EA"/>
<path d="M29.2787 82.7552L127.328 82.7552C129.584 82.7552 131.413 84.5843 131.413 86.8406C131.413 89.0969 129.584 90.926 127.328 90.926L29.2787 90.926C27.0224 90.926 25.1934 89.0969 25.1934 86.8406C25.1934 84.5843 27.0224 82.7552 29.2787 82.7552Z" fill="#33DAC8"/>
</g>
</svg>
